<svg width="32" height="32" viewBox="0 0 32 32" fill="none" xmlns="http://www.w3.org/2000/svg">
<path d="M12.9431 6.39052C12.5526 6 11.9241 6 10.667 6H10.3337V4C10.3337 3.44772 9.88594 3 9.33366 3C8.78137 3 8.33366 3.44772 8.33366 4V6H8.00033C6.74325 6 6.11471 6 5.72418 6.39052C5.33366 6.78105 5.33366 7.40959 5.33366 8.66667V8.9384C5.60364 8.86745 5.87451 8.81798 6.14111 8.78213C7.00194 8.6664 8.06015 8.66652 9.21433 8.66666H9.45299C10.6072 8.66652 11.6654 8.6664 12.5262 8.78213C12.7928 8.81797 13.0637 8.86746 13.3336 8.9384L13.3337 8.66667C13.3337 7.40959 13.3337 6.78105 12.9431 6.39052Z" fill="white"/>
<path fill-rule="evenodd" clip-rule="evenodd" d="M2.66699 28.3333C2.11471 28.3333 1.66699 28.781 1.66699 29.3333C1.66699 29.8856 2.11471 30.3333 2.66699 30.3333H29.3337C29.8859 30.3333 30.3337 29.8856 30.3337 29.3333C30.3337 28.781 29.8859 28.3333 29.3337 28.3333H28.0003V10.3626C28.0003 8.5748 28.0003 7.68091 27.5255 6.99568C27.0506 6.31045 26.2136 5.99658 24.5396 5.36884C21.266 4.14122 19.6292 3.52741 18.4814 4.32279C17.3337 5.11818 17.3337 6.86632 17.3337 10.3626V14L17.453 14C18.6072 13.9999 19.6654 13.9997 20.5262 14.1155C21.4742 14.2429 22.4761 14.5428 23.3002 15.3668C24.1242 16.1909 24.4241 17.1928 24.5515 18.1408C24.6673 19.0016 24.6671 20.0598 24.667 21.214L24.667 21.3333V28.3333H22.667V21.3333C22.667 18.8192 22.667 17.5621 21.8859 16.781C21.1049 16 19.8478 16 17.3337 16H14.667C12.1528 16 10.8958 16 10.1147 16.781C9.33366 17.5621 9.33366 18.8192 9.33366 21.3333V28.3333H7.33366V21.3333L7.33365 21.214C7.33351 20.0598 7.33339 19.0016 7.44912 18.1408C7.57657 17.1928 7.87643 16.1909 8.70049 15.3668C9.52456 14.5428 10.5265 14.2429 11.4744 14.1155C12.3353 13.9997 13.3935 13.9999 14.5477 14L14.6437 14C14.5918 12.7518 14.4247 11.9865 13.8859 11.4477C13.1049 10.6667 11.8478 10.6667 9.33366 10.6667C6.8195 10.6667 5.56242 10.6667 4.78137 11.4477C4.00033 12.2288 4.00033 13.4858 4.00033 16V28.3333H2.66699ZM12.3337 20C12.3337 19.4477 12.7814 19 13.3337 19H18.667C19.2193 19 19.667 19.4477 19.667 20C19.667 20.5523 19.2193 21 18.667 21H13.3337C12.7814 21 12.3337 20.5523 12.3337 20ZM12.3337 24C12.3337 23.4477 12.7814 23 13.3337 23H18.667C19.2193 23 19.667 23.4477 19.667 24C19.667 24.5523 19.2193 25 18.667 25H13.3337C12.7814 25 12.3337 24.5523 12.3337 24Z" fill="white"/>
</svg>
