<svg width="32" height="32" viewBox="0 0 32 32" fill="none" xmlns="http://www.w3.org/2000/svg">
<path d="M24.3813 29.3327C27.1164 29.3327 29.3337 27.2258 29.3337 24.6268C29.3337 22.567 27.9409 20.8162 26.0014 20.1785C25.7258 17.8274 23.6274 15.9993 21.0797 15.9993C18.3446 15.9993 16.1273 18.1062 16.1273 20.7052C16.1273 21.2801 16.2358 21.8308 16.4343 22.3401C16.2015 22.2966 15.9608 22.2739 15.7146 22.2739C13.6633 22.2739 12.0003 23.854 12.0003 25.8033C12.0003 27.7525 13.6633 29.3327 15.7146 29.3327H24.3813Z" fill="white"/>
<path d="M28.7353 19.3998C28.4214 19.1563 28.086 18.9391 27.7331 18.7512C26.8541 15.9496 24.1523 13.9993 21.0797 13.9993C17.4079 13.9993 14.2484 16.7982 14.1307 20.4915C12.3694 20.9853 10.9166 22.2824 10.3079 23.9993H8.38128C5.22536 23.9993 2.66699 21.4711 2.66699 18.3523C2.66699 15.2335 5.22536 12.7052 8.38128 12.7052C8.7601 12.7052 9.13032 12.7417 9.48854 12.8112C9.18307 11.9964 9.0162 11.1152 9.0162 10.1954C9.0162 6.03705 12.4274 2.66602 16.6352 2.66602C20.5548 2.66602 23.7831 5.59096 24.2071 9.35265C27.1909 10.373 29.3337 13.1742 29.3337 16.4699C29.3337 17.5092 29.1206 18.4992 28.7353 19.3998Z" fill="white"/>
</svg>
