<svg width="32" height="32" viewBox="0 0 32 32" fill="none" xmlns="http://www.w3.org/2000/svg">
<path fill-rule="evenodd" clip-rule="evenodd" d="M12.1331 3.19607C12.332 3.7113 12.0755 4.29021 11.5603 4.4891C11.3717 4.56189 11.1854 4.63919 11.0014 4.72088C10.4966 4.94497 9.90574 4.71743 9.68165 4.21265C9.45756 3.70787 9.6851 3.117 10.1899 2.89291C10.4039 2.7979 10.6207 2.70798 10.8401 2.62328C11.3553 2.4244 11.9342 2.68084 12.1331 3.19607ZM7.5306 5.65304C7.91148 6.05297 7.89604 6.68595 7.4961 7.06683C7.34988 7.20609 7.20706 7.3489 7.0678 7.49513C6.68692 7.89506 6.05394 7.9105 5.65401 7.52962C5.25408 7.14874 5.23863 6.51576 5.61952 6.11583C5.78121 5.94605 5.94702 5.78023 6.1168 5.61854C6.51674 5.23766 7.14971 5.2531 7.5306 5.65304ZM4.21362 9.68068C4.7184 9.90477 4.94594 10.4956 4.72185 11.0004C4.64017 11.1844 4.56287 11.3708 4.49007 11.5593C4.29118 12.0746 3.71227 12.331 3.19704 12.1321C2.68182 11.9332 2.42537 11.3543 2.62426 10.8391C2.70895 10.6197 2.79888 10.4029 2.89389 10.1889C3.11798 9.68413 3.70884 9.45659 4.21362 9.68068ZM2.69511 14.6714C3.24723 14.6848 3.684 15.1431 3.67066 15.6953C3.66822 15.7963 3.66699 15.8977 3.66699 15.9993C3.66699 16.101 3.66822 16.2024 3.67066 16.3034C3.684 16.8555 3.24723 17.3139 2.69511 17.3273C2.14298 17.3406 1.68458 16.9039 1.67124 16.3517C1.66841 16.2346 1.66699 16.1171 1.66699 15.9993C1.66699 15.8816 1.66841 15.7641 1.67124 15.647C1.68458 15.0948 2.14298 14.6581 2.69511 14.6714ZM28.8036 19.8666C29.3188 20.0655 29.5753 20.6444 29.3764 21.1596C29.2917 21.379 29.2018 21.5958 29.1068 21.8098C28.8827 22.3146 28.2918 22.5421 27.787 22.318C27.2822 22.0939 27.0547 21.5031 27.2788 20.9983C27.3605 20.8143 27.4378 20.6279 27.5106 20.4394C27.7095 19.9241 28.2884 19.6677 28.8036 19.8666ZM3.19704 19.8666C3.71227 19.6677 4.29118 19.9241 4.49007 20.4394C4.56287 20.6279 4.64017 20.8143 4.72185 20.9983C4.94594 21.5031 4.7184 22.0939 4.21362 22.318C3.70884 22.5421 3.11798 22.3146 2.89389 21.8098C2.79888 21.5958 2.70895 21.379 2.62426 21.1596C2.42537 20.6444 2.68182 20.0655 3.19704 19.8666ZM26.3466 24.4691C26.7466 24.85 26.762 25.4829 26.3811 25.8829C26.2194 26.0526 26.0536 26.2185 25.8838 26.3802C25.4839 26.761 24.8509 26.7456 24.4701 26.3457C24.0892 25.9457 24.1046 25.3127 24.5045 24.9319C24.6508 24.7926 24.7936 24.6498 24.9328 24.5036C25.3137 24.1036 25.9467 24.0882 26.3466 24.4691ZM5.65401 24.4691C6.05395 24.0882 6.68692 24.1036 7.0678 24.5036C7.20707 24.6498 7.34988 24.7926 7.4961 24.9319C7.89604 25.3128 7.91148 25.9457 7.5306 26.3457C7.14971 26.7456 6.51674 26.761 6.1168 26.3802C5.94703 26.2185 5.78121 26.0526 5.61952 25.8829C5.23864 25.4829 5.25408 24.85 5.65401 24.4691ZM9.68165 27.7861C9.90575 27.2813 10.4966 27.0537 11.0014 27.2778C11.1854 27.3595 11.3717 27.4368 11.5603 27.5096C12.0755 27.7085 12.332 28.2874 12.1331 28.8026C11.9342 29.3179 11.3553 29.5743 10.8401 29.3754C10.6207 29.2907 10.4039 29.2008 10.1899 29.1058C9.6851 28.8817 9.45756 28.2908 9.68165 27.7861ZM22.319 27.7861C22.5431 28.2908 22.3155 28.8817 21.8108 29.1058C21.5968 29.2008 21.38 29.2907 21.1606 29.3754C20.6454 29.5743 20.0664 29.3179 19.8676 28.8026C19.6687 28.2874 19.9251 27.7085 20.4403 27.5096C20.6289 27.4368 20.8153 27.3595 20.9993 27.2778C21.504 27.0537 22.0949 27.2813 22.319 27.7861ZM14.6724 29.3046C14.6857 28.7524 15.1441 28.3157 15.6962 28.329C15.7973 28.3315 15.8987 28.3327 16.0003 28.3327C16.102 28.3327 16.2034 28.3315 16.3044 28.329C16.8565 28.3157 17.3149 28.7524 17.3283 29.3046C17.3416 29.8567 16.9048 30.3151 16.3527 30.3284C16.2356 30.3313 16.1181 30.3327 16.0003 30.3327C15.8825 30.3327 15.7651 30.3313 15.6479 30.3284C15.0958 30.3151 14.659 29.8567 14.6724 29.3046Z" fill="white"/>
<path fill-rule="evenodd" clip-rule="evenodd" d="M16.0003 3.66602C22.8118 3.66602 28.3337 9.18784 28.3337 15.9993C28.3337 16.5516 28.7814 16.9993 29.3337 16.9993C29.8859 16.9993 30.3337 16.5516 30.3337 15.9993C30.3337 8.08327 23.9164 1.66602 16.0003 1.66602C15.448 1.66602 15.0003 2.11373 15.0003 2.66602C15.0003 3.2183 15.448 3.66602 16.0003 3.66602Z" fill="white"/>
<path fill-rule="evenodd" clip-rule="evenodd" d="M16.0003 10.9993C16.5526 10.9993 17.0003 11.4471 17.0003 11.9993V16.3327H21.3337C21.8859 16.3327 22.3337 16.7804 22.3337 17.3327C22.3337 17.885 21.8859 18.3327 21.3337 18.3327H16.0003C15.448 18.3327 15.0003 17.885 15.0003 17.3327V11.9993C15.0003 11.4471 15.448 10.9993 16.0003 10.9993Z" fill="white"/>
</svg>
