<svg width="32" height="32" viewBox="0 0 32 32" fill="none" xmlns="http://www.w3.org/2000/svg">
<path fill-rule="evenodd" clip-rule="evenodd" d="M29.3337 24.2807C29.3337 23.7866 28.9172 23.386 28.4034 23.386H18.3006C18.0489 22.7879 17.5524 22.3103 16.9306 22.0682V18.3158H24.6825C26.7375 18.3158 28.4034 16.7134 28.4034 14.7368C28.4034 12.7602 26.7375 11.1579 24.6825 11.1579C26.7375 11.1579 28.4034 9.55555 28.4034 7.57895C28.4034 5.60235 26.7375 4 24.6825 4H7.31815C5.26314 4 3.59722 5.60235 3.59722 7.57895C3.59722 9.55555 5.26314 11.1579 7.31815 11.1579C5.26314 11.1579 3.59722 12.7602 3.59722 14.7368C3.59722 16.7134 5.26314 18.3158 7.31815 18.3158H15.0701V22.0682C14.4483 22.3103 13.9517 22.7879 13.7 23.386H3.59722C3.08347 23.386 2.66699 23.7866 2.66699 24.2807C2.66699 24.7749 3.08347 25.1754 3.59722 25.1754H13.7C14.068 26.0498 14.9593 26.6667 16.0003 26.6667C17.0414 26.6667 17.9326 26.0498 18.3006 25.1754H28.4034C28.9172 25.1754 29.3337 24.7749 29.3337 24.2807ZM16.3104 7.57895C16.3104 7.0848 16.7269 6.68421 17.2406 6.68421H24.6825C25.1962 6.68421 25.6127 7.0848 25.6127 7.57895C25.6127 8.0731 25.1962 8.47368 24.6825 8.47368H17.2406C16.7269 8.47368 16.3104 8.0731 16.3104 7.57895ZM16.3104 14.7368C16.3104 14.2427 16.7269 13.8421 17.2406 13.8421H24.6825C25.1962 13.8421 25.6127 14.2427 25.6127 14.7368C25.6127 15.231 25.1962 15.6316 24.6825 15.6316H17.2406C16.7269 15.6316 16.3104 15.231 16.3104 14.7368ZM8.55847 8.77193C9.24347 8.77193 9.79878 8.23781 9.79878 7.57895C9.79878 6.92008 9.24347 6.38596 8.55847 6.38596C7.87346 6.38596 7.31815 6.92008 7.31815 7.57895C7.31815 8.23781 7.87346 8.77193 8.55847 8.77193ZM8.55847 15.9298C9.24347 15.9298 9.79878 15.3957 9.79878 14.7368C9.79878 14.078 9.24347 13.5439 8.55847 13.5439C7.87346 13.5439 7.31815 14.078 7.31815 14.7368C7.31815 15.3957 7.87346 15.9298 8.55847 15.9298Z" fill="white"/>
</svg>
