<svg width="8" height="12" viewBox="0 0 8 12" fill="none" xmlns="http://www.w3.org/2000/svg">
<path fill-rule="evenodd" clip-rule="evenodd" d="M6.80094 0.598716L7.19048 0.964507C7.31219 1.07968 7.37921 1.23306 7.37921 1.39671C7.37921 1.56038 7.31219 1.71349 7.19048 1.82867L2.77645 6.00265L7.1954 10.1811C7.31711 10.296 7.38405 10.4497 7.38405 10.6128C7.38405 10.7767 7.31711 10.9301 7.1954 11.0453L6.8082 11.4111C6.55635 11.6496 6.1462 11.6496 5.89442 11.4111L0.61419 6.43617C0.492625 6.32126 0.40699 6.16816 0.40699 6.00291V6.00106C0.40699 5.83714 0.492699 5.68403 0.61419 5.56912L5.88013 0.598716C6.00169 0.483807 6.16864 0.420563 6.34167 0.420296C6.51478 0.420296 6.67938 0.483807 6.80094 0.598716Z" fill="#1B1B1B"/>
<path fill-rule="evenodd" clip-rule="evenodd" d="M6.80094 0.598716L7.19048 0.964507C7.31219 1.07968 7.37921 1.23306 7.37921 1.39671C7.37921 1.56038 7.31219 1.71349 7.19048 1.82867L2.77645 6.00265L7.1954 10.1811C7.31711 10.296 7.38405 10.4497 7.38405 10.6128C7.38405 10.7767 7.31711 10.9301 7.1954 11.0453L6.8082 11.4111C6.55635 11.6496 6.1462 11.6496 5.89442 11.4111L0.61419 6.43617C0.492625 6.32126 0.40699 6.16816 0.40699 6.00291V6.00106C0.40699 5.83714 0.492699 5.68403 0.61419 5.56912L5.88013 0.598716C6.00169 0.483807 6.16864 0.420563 6.34167 0.420296C6.51478 0.420296 6.67938 0.483807 6.80094 0.598716Z" fill="#1B1B1B"/>
</svg>
