<svg width="8" height="12" viewBox="0 0 8 12" fill="none" xmlns="http://www.w3.org/2000/svg">
<path fill-rule="evenodd" clip-rule="evenodd" d="M1.19906 0.598716L0.809518 0.964507C0.687806 1.07968 0.62079 1.23306 0.62079 1.39671C0.62079 1.56038 0.687806 1.71349 0.809518 1.82867L5.22355 6.00265L0.804603 10.1811C0.682891 10.296 0.615949 10.4497 0.615949 10.6128C0.615949 10.7767 0.682891 10.9301 0.804603 11.0453L1.1918 11.4111C1.44365 11.6496 1.8538 11.6496 2.10558 11.4111L7.38581 6.43617C7.50737 6.32126 7.59301 6.16816 7.59301 6.00291V6.00106C7.59301 5.83714 7.5073 5.68403 7.38581 5.56912L2.11987 0.598716C1.99831 0.483807 1.83136 0.420563 1.65833 0.420296C1.48522 0.420296 1.32062 0.483807 1.19906 0.598716Z" fill="#1B1B1B"/>
<path fill-rule="evenodd" clip-rule="evenodd" d="M1.19906 0.598716L0.809518 0.964507C0.687806 1.07968 0.62079 1.23306 0.62079 1.39671C0.62079 1.56038 0.687806 1.71349 0.809518 1.82867L5.22355 6.00265L0.804603 10.1811C0.682891 10.296 0.615949 10.4497 0.615949 10.6128C0.615949 10.7767 0.682891 10.9301 0.804603 11.0453L1.1918 11.4111C1.44365 11.6496 1.8538 11.6496 2.10558 11.4111L7.38581 6.43617C7.50737 6.32126 7.59301 6.16816 7.59301 6.00291V6.00106C7.59301 5.83714 7.5073 5.68403 7.38581 5.56912L2.11987 0.598716C1.99831 0.483807 1.83136 0.420563 1.65833 0.420296C1.48522 0.420296 1.32062 0.483807 1.19906 0.598716Z" fill="#1B1B1B"/>
</svg>
