<svg width="50" height="32" viewBox="0 0 50 32" fill="none" xmlns="http://www.w3.org/2000/svg">
<path d="M18.2446 0.265113C18.8072 0.18354 19.4107 0.0917698 19.5743 0.0713765C19.738 0.0509832 20.3313 0.0203933 21.8758 0V3.72178L20.9859 3.79315C20.4847 3.83394 19.7176 3.9563 19.2675 4.07866C18.8174 4.19082 18.0809 4.46613 17.6309 4.67006C17.1808 4.88419 16.5364 5.24108 16.1988 5.45521C15.8613 5.67953 15.2373 6.18937 14.818 6.58703C14.3986 6.9847 13.8155 7.65768 13.5291 8.06555C13.2427 8.48361 12.8847 9.05462 12.7415 9.32993C12.5983 9.61544 12.3937 10.0947 12.271 10.4006C12.1585 10.7065 12.0766 10.9716 12.0869 10.9716C12.0971 10.9818 12.5881 11.1042 13.1813 11.2571C13.836 11.4202 14.6543 11.7159 15.2783 12.032C15.8511 12.3074 16.6796 12.8376 17.1603 13.2251C17.6411 13.6023 18.2855 14.2243 18.5924 14.5914C18.9095 14.9687 19.4005 15.6519 19.6766 16.1209C19.9733 16.6103 20.3517 17.4567 20.5665 18.0991C20.7916 18.772 20.9859 19.6285 21.0575 20.2403C21.1291 20.8419 21.1496 21.6271 21.1087 22.1777C21.0678 22.6875 20.9245 23.5339 20.7916 24.0641C20.6586 24.5943 20.3313 25.4712 20.0756 26.0015C19.8198 26.5317 19.4107 27.2454 19.1652 27.5819C18.9299 27.9184 18.4389 28.4894 18.0809 28.8463C17.7229 29.2032 17.1297 29.713 16.7614 29.9883C16.3932 30.2637 15.7488 30.6511 15.3294 30.8551C14.91 31.059 14.2656 31.3343 13.8974 31.4567C13.5291 31.579 12.7722 31.7626 12.2096 31.8645C11.4527 31.9971 10.9003 32.0277 10.0616 31.9767C9.37623 31.9461 8.53747 31.8135 7.91351 31.6606C7.3407 31.5178 6.44057 31.1814 5.86775 30.8958C5.28471 30.6103 4.46641 30.0903 3.97542 29.7028C3.5049 29.3256 2.84003 28.6832 2.49225 28.2753C2.1547 27.8674 1.72509 27.2964 1.5512 27.0007C1.36708 26.705 1.06022 26.0932 0.85564 25.6446C0.661293 25.1959 0.405573 24.4618 0.282827 24.0131C0.149852 23.4829 0.0475645 22.7283 0.016878 21.8718C-0.0240372 20.9235 0.00664926 20.1486 0.139624 19.1697C0.231683 18.4151 0.466945 17.1915 0.651064 16.4676C0.835182 15.7436 1.15228 14.6832 1.36708 14.1224C1.57166 13.5615 2.02172 12.5725 2.34905 11.9301C2.67637 11.2877 3.24918 10.2986 3.62765 9.7378C3.99588 9.17698 4.58915 8.37145 4.93693 7.95339C5.27448 7.53532 5.94958 6.80116 6.43034 6.32192C6.91109 5.84268 7.67825 5.1595 8.11809 4.80262C8.56816 4.44574 9.35577 3.87473 9.85699 3.53824C10.3582 3.21194 11.2686 2.69192 11.8823 2.38602C12.4858 2.08012 13.3757 1.67225 13.8667 1.46832C14.3679 1.26438 15.3192 0.948288 15.9943 0.764749C16.6694 0.581209 17.682 0.356883 18.2446 0.265113Z" fill="#61D91D"/>
<path d="M44.6861 0.458849C45.1668 0.356883 45.9442 0.224326 46.4249 0.15295C46.9057 0.0815732 47.7649 0.0203933 49.3913 0L49.3402 3.72178L48.4196 3.79315C47.9081 3.83394 47.0898 3.98689 46.5784 4.12964C46.0669 4.2724 45.2486 4.59869 44.7372 4.84341C44.2258 5.08813 43.4279 5.60816 42.9574 5.98543C42.4766 6.36271 41.7708 7.06628 41.3924 7.54552C40.9832 8.04516 40.4718 8.84049 40.1854 9.4319C39.9092 9.99272 39.6535 10.5739 39.6228 10.7371C39.5717 11.0022 39.5921 11.0124 40.1547 11.1245C40.482 11.1959 41.0651 11.3489 41.464 11.4916C41.8629 11.6242 42.5482 11.9301 42.9983 12.1646C43.4484 12.4093 44.0928 12.807 44.4303 13.0619C44.7679 13.3168 45.3918 13.898 45.8112 14.3467C46.2306 14.8055 46.7932 15.5295 47.0489 15.968C47.3149 16.4166 47.6524 17.059 47.7956 17.4159C47.9388 17.7626 48.1638 18.4253 48.2866 18.8944C48.4912 19.6082 48.5219 19.9854 48.5219 21.4639C48.5219 23.0546 48.5014 23.2789 48.2354 24.217C48.0718 24.7779 47.7036 25.6956 47.4171 26.2564C47.1307 26.8172 46.6295 27.5921 46.3124 27.9898C46.0056 28.3875 45.4737 28.9483 45.1361 29.2542C44.8088 29.5601 44.2564 29.9883 43.9189 30.2127C43.5813 30.4472 42.9369 30.8041 42.4869 31.008C42.0368 31.2221 41.2083 31.5178 40.6457 31.6708C39.7353 31.9155 39.4489 31.9461 38.0373 31.9461C36.6667 31.9461 36.3189 31.9155 35.4801 31.6912C34.9482 31.5484 34.1197 31.2527 33.639 31.0284C33.1582 30.8143 32.5036 30.4574 32.1762 30.2535C31.8591 30.0495 31.2147 29.5193 30.7442 29.0706C30.2839 28.6322 29.6497 27.9082 29.3429 27.4698C29.036 27.0211 28.6166 26.287 28.4018 25.8281C28.187 25.3591 27.921 24.6249 27.8085 24.1966C27.696 23.7582 27.5528 22.9629 27.5017 22.4326C27.4301 21.8004 27.4301 21.0459 27.5017 20.2403C27.5528 19.5674 27.6653 18.5987 27.7574 18.0991C27.8494 17.5994 28.054 16.6511 28.2279 16.0087C28.4018 15.3664 28.7496 14.3365 28.9951 13.7145C29.2508 13.0925 29.7111 12.1136 30.0282 11.5222C30.335 10.9308 30.826 10.1049 31.1124 9.68682C31.3988 9.26875 31.9921 8.48361 32.4217 7.95339C32.8513 7.42316 33.6594 6.54625 34.2118 6.02622C34.7743 5.49599 35.6847 4.72105 36.2473 4.30299C36.8099 3.88492 37.6793 3.30371 38.1908 2.99781C38.7022 2.70211 39.5717 2.24326 40.1342 1.98835C40.6968 1.72323 41.7606 1.31537 42.4869 1.07065C43.2131 0.825929 44.2053 0.550619 44.6861 0.458849Z" fill="#61D91D"/>
</svg>
