<svg width="16" height="16" viewBox="0 0 16 16" fill="none" xmlns="http://www.w3.org/2000/svg">
<path d="M6.69205 3.54346L7.12473 4.31875C7.51519 5.0184 7.35845 5.93623 6.74347 6.55121C6.74347 6.55122 6.74347 6.55121 6.74346 6.55122C6.74335 6.55133 5.99761 7.29728 7.35 8.64967C8.70174 10.0014 9.44765 9.25702 9.44846 9.25621C9.44848 9.25619 9.44847 9.2562 9.44849 9.25617C10.0635 8.64122 10.9813 8.48449 11.6809 8.87495L12.4562 9.30762C13.5127 9.89723 13.6375 11.3788 12.7088 12.3075C12.1508 12.8655 11.4673 13.2997 10.7116 13.3283C9.43951 13.3765 7.27918 13.0546 5.11213 10.8875C2.94508 8.7205 2.62314 6.56016 2.67136 5.28807C2.70001 4.53242 3.13419 3.84884 3.6922 3.29084C4.62083 2.3622 6.10244 2.48697 6.69205 3.54346Z" fill="white"/>
<path d="M8.83933 1.25387C8.88346 0.981279 9.14116 0.796362 9.41375 0.840494C9.43062 0.843724 9.48491 0.853871 9.51336 0.860206C9.57024 0.872875 9.6496 0.89238 9.74853 0.921197C9.94639 0.978826 10.2228 1.07376 10.5545 1.22585C11.2187 1.53036 12.1026 2.06303 13.0198 2.98023C13.937 3.89743 14.4697 4.7813 14.7742 5.44549C14.9263 5.77723 15.0212 6.05363 15.0788 6.25149C15.1076 6.35042 15.1271 6.42977 15.1398 6.48666C15.1461 6.51511 15.1508 6.53795 15.154 6.55482L15.1578 6.57562C15.202 6.84821 15.0187 7.11655 14.7461 7.16069C14.4743 7.20469 14.2183 7.02067 14.1731 6.74935C14.1717 6.74207 14.1678 6.7225 14.1637 6.70404C14.1555 6.66712 14.1413 6.60857 14.1187 6.53113C14.0736 6.37624 13.9952 6.14602 13.8651 5.86224C13.6053 5.29537 13.1379 4.51257 12.3127 3.68733C11.4874 2.86209 10.7047 2.39476 10.1378 2.13487C9.854 2.00477 9.62378 1.92641 9.46888 1.8813C9.39145 1.85875 9.29412 1.8364 9.2572 1.82818C8.98588 1.78297 8.79533 1.52569 8.83933 1.25387Z" fill="white"/>
<path fill-rule="evenodd" clip-rule="evenodd" d="M8.99017 3.55352C9.06603 3.288 9.34277 3.13425 9.60829 3.21011L9.47093 3.69088C9.60829 3.21011 9.60829 3.21011 9.60829 3.21011L9.60925 3.21039L9.61027 3.21068L9.61249 3.21133L9.61766 3.21288L9.63085 3.21699C9.6409 3.2202 9.65346 3.22439 9.66842 3.2297C9.69836 3.24032 9.73794 3.25543 9.78647 3.27623C9.8836 3.31786 10.0163 3.38214 10.1793 3.47861C10.5056 3.67173 10.9511 3.99252 11.4744 4.51583C11.9977 5.03915 12.3185 5.48461 12.5116 5.81092C12.6081 5.97392 12.6724 6.10663 12.714 6.20376C12.7348 6.25229 12.7499 6.29187 12.7605 6.32181C12.7658 6.33677 12.77 6.34933 12.7732 6.35938L12.7774 6.37257L12.7789 6.37774L12.7795 6.37996L12.7798 6.38098C12.7798 6.38098 12.7801 6.38194 12.2994 6.5193L12.7801 6.38194C12.856 6.64746 12.7022 6.9242 12.4367 7.00006C12.1735 7.07528 11.8992 6.92477 11.8206 6.6634L11.8181 6.65622C11.8145 6.6462 11.8072 6.62648 11.7949 6.59767C11.7702 6.54012 11.7255 6.44596 11.651 6.32024C11.5024 6.06907 11.2339 5.68958 10.7673 5.22294C10.3007 4.75631 9.92115 4.48784 9.66999 4.33919C9.54427 4.26478 9.45011 4.22005 9.39256 4.19538C9.36375 4.18304 9.34403 4.17568 9.33401 4.17213L9.32683 4.16966C9.06545 4.09108 8.91495 3.81678 8.99017 3.55352Z" fill="white"/>
</svg>
