<svg width="220" height="48" viewBox="0 0 220 48" fill="none" xmlns="http://www.w3.org/2000/svg">
<g clip-path="url(#clip0_181_330)">
<path d="M45.5391 42.2682H46.9474C47.6767 41.6914 47.8528 40.2369 47.9785 39.1836C48.2551 36.8262 48.3808 35.0958 48.5317 32.69H58.0614V42.2682H59.6525V47.9861H56.685V45.2275H48.5133V47.9861H45.5458L45.5391 42.2682ZM50.4431 42.2682H55.1375V35.5974H51.2143C51.0885 37.1773 50.9896 38.5817 50.8136 40.0362C50.7616 40.7903 50.6375 41.5377 50.4431 42.2682Z" fill="black" fill-opacity="0.8"/>
<path d="M73.6285 38.9579C73.6285 40.2475 73.245 41.5081 72.5265 42.5804C71.808 43.6527 70.7868 44.4884 69.592 44.9819C68.3972 45.4754 67.0825 45.6046 65.8142 45.353C64.5458 45.1014 63.3807 44.4804 62.4662 43.5685C61.5518 42.6566 60.9291 41.4948 60.6768 40.2299C60.4245 38.9651 60.5539 37.6541 61.0488 36.4626C61.5437 35.2712 62.3818 34.2529 63.4571 33.5364C64.5324 32.8199 65.7966 32.4375 67.0898 32.4375C68.824 32.4375 70.4871 33.1245 71.7133 34.3473C72.9396 35.5701 73.6285 37.2286 73.6285 38.9579ZM67.0898 42.519C67.7961 42.519 68.4865 42.3102 69.0738 41.9188C69.6611 41.5275 70.1188 40.9714 70.3891 40.3207C70.6593 39.67 70.7301 38.9539 70.5923 38.2631C70.4545 37.5723 70.1144 36.9378 69.615 36.4398C69.1155 35.9418 68.4792 35.6026 67.7865 35.4652C67.0937 35.3278 66.3757 35.3983 65.7232 35.6678C65.0706 35.9374 64.5129 36.3938 64.1205 36.9794C63.7281 37.565 63.5187 38.2536 63.5187 38.9579C63.5222 39.9013 63.8996 40.805 64.5686 41.4721C65.2375 42.1392 66.1438 42.5155 67.0898 42.519Z" fill="black" fill-opacity="0.8"/>
<path d="M75.7929 32.69H78.5342L82.682 39.5581L86.8567 32.6883H89.5979V45.2275H86.6806V38.3878L83.7382 43.2279H81.6777L78.7102 38.3878V45.2342H75.7929V32.69Z" fill="black" fill-opacity="0.8"/>
<path d="M104.838 38.9579C104.838 40.2475 104.455 41.5081 103.736 42.5804C103.018 43.6527 101.996 44.4884 100.802 44.9819C99.6068 45.4754 98.2921 45.6046 97.0237 45.353C95.7553 45.1014 94.5903 44.4804 93.6758 43.5685C92.7614 42.6566 92.1386 41.4948 91.8863 40.2299C91.634 38.9651 91.7635 37.6541 92.2584 36.4626C92.7533 35.2712 93.5914 34.2529 94.6667 33.5364C95.7419 32.8199 97.0061 32.4375 98.2993 32.4375C100.034 32.4375 101.697 33.1245 102.923 34.3473C104.149 35.5701 104.838 37.2286 104.838 38.9579ZM98.2993 42.519C99.0056 42.519 99.6961 42.3102 100.283 41.9188C100.871 41.5275 101.328 40.9714 101.599 40.3207C101.869 39.67 101.94 38.9539 101.802 38.2631C101.664 37.5723 101.324 36.9378 100.824 36.4398C100.325 35.9418 99.6888 35.6026 98.9961 35.4652C98.3033 35.3278 97.5853 35.3983 96.9327 35.6678C96.2802 35.9374 95.7225 36.3938 95.3301 36.9794C94.9377 37.565 94.7282 38.2536 94.7282 38.9579C94.7318 39.9013 95.1091 40.805 95.7781 41.4721C96.447 42.1392 97.3533 42.5155 98.2993 42.519Z" fill="black" fill-opacity="0.8"/>
<path d="M113.974 32.69C115.91 32.69 117.52 34.0943 117.52 35.9485C117.523 36.4878 117.386 37.0188 117.121 37.4893C116.857 37.9597 116.474 38.3535 116.011 38.6319C116.589 38.914 117.075 39.3533 117.413 39.8991C117.751 40.4449 117.928 41.0749 117.922 41.7165C117.922 43.7228 116.212 45.2275 114.15 45.2275H107.009V32.6883L113.974 32.69ZM109.782 35.0958V37.6036H113.427C114.383 37.6036 114.861 37.0018 114.861 36.3748C114.861 35.7479 114.383 35.0958 113.402 35.0958H109.782ZM109.782 39.8356V42.82H113.578C114.71 42.82 115.263 42.0676 115.263 41.3152C115.263 40.5629 114.71 39.8356 113.578 39.8356H109.782Z" fill="black" fill-opacity="0.8"/>
<path d="M119.525 42.5675C120.983 42.5675 121.336 40.7284 121.512 39.1819C121.788 36.8245 121.914 35.0941 122.065 32.6883H131.621V45.2275H128.704L128.679 35.5974H124.781C124.63 37.403 124.529 38.8325 124.303 40.6381C124.001 43.0206 123.197 45.4783 120.48 45.4783C120.154 45.4783 119.751 45.4783 119.324 45.4532V42.5675H119.525Z" fill="black" fill-opacity="0.8"/>
<path d="M140.021 32.4392C140.757 32.4531 141.482 32.6208 142.149 32.9315C142.816 33.2423 143.411 33.6891 143.894 34.2431V32.69H146.861V45.2291H143.894V43.6241C143.421 44.1945 142.83 44.6557 142.162 44.9761C141.493 45.2965 140.763 45.4684 140.021 45.4799C136.425 45.4799 133.784 42.5458 133.784 38.9595C133.784 35.3733 136.425 32.4392 140.021 32.4392ZM136.752 38.9595C136.752 39.6639 136.961 40.3524 137.354 40.938C137.746 41.5236 138.304 41.9801 138.956 42.2496C139.609 42.5191 140.327 42.5897 141.019 42.4523C141.712 42.3148 142.349 41.9757 142.848 41.4777C143.347 40.9796 143.688 40.3451 143.825 39.6543C143.963 38.9635 143.892 38.2475 143.622 37.5968C143.352 36.9461 142.894 36.3899 142.307 35.9986C141.72 35.6073 141.029 35.3984 140.323 35.3984C139.377 35.4019 138.471 35.778 137.802 36.4448C137.133 37.1115 136.756 38.0148 136.752 38.9579V38.9595Z" fill="black" fill-opacity="0.8"/>
<path d="M148.471 42.2682H149.879C150.609 41.6914 150.785 40.2369 150.91 39.1836C151.187 36.8262 151.313 35.0958 151.464 32.69H160.995V42.2682H162.579V47.9861H159.612V45.2275H151.439V47.9861H148.471V42.2682ZM158.069 42.2682V35.5974H154.146C154.02 37.1773 153.92 38.5817 153.744 40.0362C153.692 40.7903 153.568 41.5377 153.373 42.2682H158.069Z" fill="black" fill-opacity="0.8"/>
<path d="M169.898 32.4392C173.469 32.4392 175.908 35.0457 175.908 38.7823C175.908 39.2588 175.833 39.7855 175.782 40.287H166.427C166.93 41.8419 168.338 42.7949 170.199 42.7949C171.407 42.7949 172.563 42.3685 173.318 41.5409L175.204 43.4218C173.997 44.751 172.236 45.4783 170.174 45.4783C166.377 45.4783 163.485 42.6444 163.485 38.9579C163.485 35.2714 166.251 32.4392 169.898 32.4392ZM166.377 37.9798H173.117C172.865 36.1993 171.532 35.0958 169.847 35.0958C168.112 35.0958 166.628 36.2494 166.377 37.9798Z" fill="black" fill-opacity="0.8"/>
<path d="M176.889 42.5675C178.348 42.5675 178.7 40.7284 178.876 39.1819C179.152 36.8245 179.278 35.0941 179.429 32.6883H188.986V45.2275H186.067L186.041 35.5974H182.143C181.993 37.403 181.892 38.8325 181.666 40.6381C181.364 43.0206 180.559 45.4783 177.843 45.4783C177.516 45.4783 177.114 45.4783 176.686 45.4532V42.5675H176.889Z" fill="black" fill-opacity="0.8"/>
<path d="M197.561 32.4392C201.132 32.4392 203.57 35.0457 203.57 38.7823C203.57 39.2588 203.496 39.7855 203.444 40.287H194.091C194.594 41.8419 196.002 42.7949 197.863 42.7949C199.07 42.7949 200.227 42.3685 200.981 41.5409L202.868 43.4218C201.659 44.751 199.9 45.4783 197.838 45.4783C194.04 45.4783 191.148 42.6444 191.148 38.9579C191.148 35.2714 193.915 32.4392 197.561 32.4392ZM194.04 37.9798H200.779C200.527 36.1993 199.196 35.0958 197.511 35.0958C195.776 35.0958 194.292 36.2494 194.04 37.9798Z" fill="black" fill-opacity="0.8"/>
<path d="M205.709 32.69H208.677V42.2682H214.377V32.69H217.345V42.2682H218.954V47.9861H215.987V45.2275H205.703L205.709 32.69Z" fill="black" fill-opacity="0.8"/>
<path d="M93.1981 27.6029H86.6946L67.1289 6.88652L28.301 48H21.7959L67.1289 0L93.1981 27.6029Z" fill="#00AB26"/>
<path d="M93.1981 27.6029H86.6946L67.1289 6.88652L28.301 48H21.7959L67.1289 0L93.1981 27.6029Z" fill="url(#paint0_linear_181_330)"/>
<path d="M52.7754 7.87795L49.5245 11.3254L45.333 6.88652L6.50513 48H0L45.333 0L52.7754 7.87795Z" fill="#00AB26"/>
<path d="M52.7754 7.87795L49.5245 11.3254L45.333 6.88652L6.50513 48H0L45.333 0L52.7754 7.87795Z" fill="url(#paint1_linear_181_330)"/>
<path d="M66.926 18.2402H63.375V21.8682H66.926V18.2402Z" fill="#FFD41F"/>
<path d="M71.1711 18.2402H67.6201V21.8682H71.1711V18.2402Z" fill="#FFD41F"/>
<path d="M66.926 22.5586H63.375V26.0144H66.926V22.5586Z" fill="#FFD41F"/>
<path d="M71.1711 22.5586H67.6201V26.0144H71.1711V22.5586Z" fill="#FFD41F"/>
</g>
<defs>
<linearGradient id="paint0_linear_181_330" x1="12.628" y1="5.50003" x2="90.3306" y2="11.0674" gradientUnits="userSpaceOnUse">
<stop stop-color="#00C72C"/>
<stop offset="1" stop-color="#AFE70F"/>
</linearGradient>
<linearGradient id="paint1_linear_181_330" x1="12.628" y1="5.50003" x2="90.3306" y2="11.0674" gradientUnits="userSpaceOnUse">
<stop stop-color="#00C72C"/>
<stop offset="1" stop-color="#AFE70F"/>
</linearGradient>
<clipPath id="clip0_181_330">
<rect width="220" height="48" fill="white"/>
</clipPath>
</defs>
</svg>
