<svg width="489" height="489" viewBox="0 0 489 489" fill="none" xmlns="http://www.w3.org/2000/svg">
<path d="M359.904 244.011C359.904 309.097 307.141 361.86 242.055 361.86C176.969 361.86 124.206 309.097 124.206 244.011C124.206 178.925 176.969 126.162 242.055 126.162C307.141 126.162 359.904 178.925 359.904 244.011Z" fill="url(#paint0_linear_423_1209)"/>
<path fill-rule="evenodd" clip-rule="evenodd" d="M244.5 410.76C336.323 410.76 410.76 336.323 410.76 244.5C410.76 152.677 336.323 78.24 244.5 78.24C152.677 78.24 78.24 152.677 78.24 244.5C78.24 336.323 152.677 410.76 244.5 410.76ZM244.5 489C379.534 489 489 379.534 489 244.5C489 109.466 379.534 0 244.5 0C109.466 0 0 109.466 0 244.5C0 379.534 109.466 489 244.5 489Z" fill="url(#paint1_linear_423_1209)"/>
<defs>
<linearGradient id="paint0_linear_423_1209" x1="244.5" y1="0" x2="244.5" y2="334.268" gradientUnits="userSpaceOnUse">
<stop stop-color="#94E214"/>
<stop offset="1" stop-color="#94E214" stop-opacity="0"/>
</linearGradient>
<linearGradient id="paint1_linear_423_1209" x1="244.5" y1="0" x2="244.5" y2="334.268" gradientUnits="userSpaceOnUse">
<stop stop-color="#94E214"/>
<stop offset="1" stop-color="#94E214" stop-opacity="0"/>
</linearGradient>
</defs>
</svg>
