<svg width="32" height="32" viewBox="0 0 32 32" fill="none" xmlns="http://www.w3.org/2000/svg">
<path fill-rule="evenodd" clip-rule="evenodd" d="M9.66002 2.66602H22.34C23.8851 2.66602 24.6577 2.66602 25.2808 2.88282C26.4624 3.29396 27.39 4.24893 27.7894 5.4653C28 6.10674 28 6.90208 28 8.49276V27.1649C28 28.3093 26.6867 28.9164 25.8559 28.1562C25.3678 27.7095 24.6322 27.7095 24.1441 28.1562L23.5 28.7456C22.6446 29.5284 21.3554 29.5284 20.5 28.7456C19.6446 27.9628 18.3554 27.9628 17.5 28.7456C16.6446 29.5284 15.3554 29.5284 14.5 28.7456C13.6446 27.9628 12.3554 27.9628 11.5 28.7456C10.6446 29.5284 9.35545 29.5284 8.5 28.7456L7.85587 28.1562C7.36777 27.7095 6.63223 27.7095 6.14413 28.1562C5.31333 28.9164 4 28.3093 4 27.1649V8.49276C4 6.90208 4 6.10674 4.21061 5.4653C4.60997 4.24893 5.53763 3.29396 6.71918 2.88282C7.34228 2.66602 8.11486 2.66602 9.66002 2.66602ZM9.33333 8.99935C8.78105 8.99935 8.33333 9.44706 8.33333 9.99935C8.33333 10.5516 8.78105 10.9993 9.33333 10.9993H10C10.5523 10.9993 11 10.5516 11 9.99935C11 9.44706 10.5523 8.99935 10 8.99935H9.33333ZM14 8.99935C13.4477 8.99935 13 9.44706 13 9.99935C13 10.5516 13.4477 10.9993 14 10.9993H22.6667C23.219 10.9993 23.6667 10.5516 23.6667 9.99935C23.6667 9.44706 23.219 8.99935 22.6667 8.99935H14ZM9.33333 13.666C8.78105 13.666 8.33333 14.1137 8.33333 14.666C8.33333 15.2183 8.78105 15.666 9.33333 15.666H10C10.5523 15.666 11 15.2183 11 14.666C11 14.1137 10.5523 13.666 10 13.666H9.33333ZM14 13.666C13.4477 13.666 13 14.1137 13 14.666C13 15.2183 13.4477 15.666 14 15.666H22.6667C23.219 15.666 23.6667 15.2183 23.6667 14.666C23.6667 14.1137 23.219 13.666 22.6667 13.666H14ZM9.33333 18.3327C8.78105 18.3327 8.33333 18.7804 8.33333 19.3327C8.33333 19.885 8.78105 20.3327 9.33333 20.3327H10C10.5523 20.3327 11 19.885 11 19.3327C11 18.7804 10.5523 18.3327 10 18.3327H9.33333ZM14 18.3327C13.4477 18.3327 13 18.7804 13 19.3327C13 19.885 13.4477 20.3327 14 20.3327H22.6667C23.219 20.3327 23.6667 19.885 23.6667 19.3327C23.6667 18.7804 23.219 18.3327 22.6667 18.3327H14Z" fill="#4C5261"/>
</svg>
