<svg width="32" height="32" viewBox="0 0 32 32" fill="none" xmlns="http://www.w3.org/2000/svg">
<path d="M27.0262 21.6859L27.9669 16.2463C28.2018 14.8876 27.157 13.6449 25.7797 13.6449H18.8716C18.1869 13.6449 17.6655 13.0304 17.7764 12.354L18.6599 6.96124C18.8035 6.08515 18.7625 5.18868 18.5396 4.32938C18.3549 3.61754 17.8057 3.04595 17.0834 2.81392L16.8901 2.75182C16.4536 2.61159 15.9772 2.64422 15.5656 2.84254C15.1126 3.06083 14.7812 3.45899 14.6583 3.93253L14.0241 6.37767C13.8223 7.15566 13.5283 7.90662 13.1493 8.61617C12.5955 9.65291 11.7392 10.4826 10.8492 11.2496L8.93085 12.9027C8.38998 13.3687 8.10593 14.0668 8.16748 14.7786L9.25036 27.3021C9.34969 28.4508 10.3101 29.3327 11.4618 29.3327H17.66C22.3017 29.3327 26.2631 26.0985 27.0262 21.6859Z" fill="#4C5261"/>
<path fill-rule="evenodd" clip-rule="evenodd" d="M3.95689 12.6461C4.49191 12.623 4.95015 13.0255 4.99628 13.559L6.29175 28.5411C6.37496 29.5035 5.61691 30.3329 4.64894 30.3329C3.73719 30.3329 3 29.5933 3 28.6832V13.6452C3 13.1097 3.42187 12.6692 3.95689 12.6461Z" fill="#4C5261"/>
</svg>
