<svg width="32" height="32" viewBox="0 0 32 32" fill="none" xmlns="http://www.w3.org/2000/svg">
<path fill-rule="evenodd" clip-rule="evenodd" d="M20.0003 2.66602H22.667C25.1811 2.66602 26.4382 2.66602 27.2193 3.44706C28.0003 4.22811 28.0003 5.48519 28.0003 7.99935V28.3327H29.3337C29.8859 28.3327 30.3337 28.7804 30.3337 29.3327C30.3337 29.885 29.8859 30.3327 29.3337 30.3327H2.66699C2.11471 30.3327 1.66699 29.885 1.66699 29.3327C1.66699 28.7804 2.11471 28.3327 2.66699 28.3327H4.00033V11.9993C4.00033 9.48519 4.00033 8.22811 4.78137 7.44706C5.56242 6.66602 6.8195 6.66602 9.33366 6.66602H14.667C17.1811 6.66602 18.4382 6.66602 19.2193 7.44706C20.0003 8.22811 20.0003 9.48519 20.0003 11.9993V28.3327H22.0003V11.9993L22.0003 11.88C22.0005 10.7259 22.0006 9.66763 21.8849 8.8068C21.7574 7.85885 21.4576 6.85691 20.6335 6.03285C19.8094 5.20879 18.8075 4.90893 17.8595 4.78148C17.0108 4.66737 15.9702 4.66589 14.835 4.666C14.9474 4.14968 15.135 3.76013 15.448 3.44706C16.2291 2.66602 17.4862 2.66602 20.0003 2.66602ZM7.00033 10.666C7.00033 10.1137 7.44804 9.66602 8.00033 9.66602H16.0003C16.5526 9.66602 17.0003 10.1137 17.0003 10.666C17.0003 11.2183 16.5526 11.666 16.0003 11.666H8.00033C7.44804 11.666 7.00033 11.2183 7.00033 10.666ZM7.00033 14.666C7.00033 14.1137 7.44804 13.666 8.00033 13.666H16.0003C16.5526 13.666 17.0003 14.1137 17.0003 14.666C17.0003 15.2183 16.5526 15.666 16.0003 15.666H8.00033C7.44804 15.666 7.00033 15.2183 7.00033 14.666ZM7.00033 18.666C7.00033 18.1137 7.44804 17.666 8.00033 17.666H16.0003C16.5526 17.666 17.0003 18.1137 17.0003 18.666C17.0003 19.2183 16.5526 19.666 16.0003 19.666H8.00033C7.44804 19.666 7.00033 19.2183 7.00033 18.666ZM12.0003 24.3327C12.5526 24.3327 13.0003 24.7804 13.0003 25.3327V28.3327H11.0003V25.3327C11.0003 24.7804 11.448 24.3327 12.0003 24.3327Z" fill="#4C5261"/>
</svg>
