<svg width="32" height="32" viewBox="0 0 32 32" fill="none" xmlns="http://www.w3.org/2000/svg">
<path fill-rule="evenodd" clip-rule="evenodd" d="M29.3337 15.9993C29.3337 23.3631 23.3641 29.3327 16.0003 29.3327C13.8674 29.3327 11.8515 28.8319 10.0637 27.9414C9.5886 27.7048 9.04557 27.626 8.53284 27.7632L5.56479 28.5573C4.27634 28.9021 3.0976 27.7233 3.44234 26.4349L4.23648 23.4668C4.37367 22.9541 4.29491 22.4111 4.05827 21.936C3.16781 20.1482 2.66699 18.1323 2.66699 15.9993C2.66699 8.63555 8.63653 2.66602 16.0003 2.66602C23.3641 2.66602 29.3337 8.63555 29.3337 15.9993ZM16.0003 9.66602C16.5526 9.66602 17.0003 10.1137 17.0003 10.666V21.3327C17.0003 21.885 16.5526 22.3327 16.0003 22.3327C15.448 22.3327 15.0003 21.885 15.0003 21.3327V10.666C15.0003 10.1137 15.448 9.66602 16.0003 9.66602ZM11.667 13.3327C11.667 12.7804 11.2193 12.3327 10.667 12.3327C10.1147 12.3327 9.66699 12.7804 9.66699 13.3327V18.666C9.66699 19.2183 10.1147 19.666 10.667 19.666C11.2193 19.666 11.667 19.2183 11.667 18.666V13.3327ZM21.3337 12.3327C21.8859 12.3327 22.3337 12.7804 22.3337 13.3327V18.666C22.3337 19.2183 21.8859 19.666 21.3337 19.666C20.7814 19.666 20.3337 19.2183 20.3337 18.666V13.3327C20.3337 12.7804 20.7814 12.3327 21.3337 12.3327Z" fill="#4C5261"/>
</svg>
