<svg width="32" height="32" viewBox="0 0 32 32" fill="none" xmlns="http://www.w3.org/2000/svg">
<path fill-rule="evenodd" clip-rule="evenodd" d="M4.50335 6.77589C4 7.49305 4 9.62478 4 13.8882V15.9878C4 23.5053 9.65195 27.1533 13.1981 28.7024C14.16 29.1226 14.641 29.3327 16 29.3327C17.359 29.3327 17.84 29.1226 18.8019 28.7024C22.348 27.1533 28 23.5053 28 15.9878V13.8882C28 9.62478 28 7.49305 27.4966 6.77589C26.9933 6.05873 24.9889 5.37262 20.9801 4.00041L20.2164 3.73897C18.1267 3.02367 17.0819 2.66602 16 2.66602C14.9181 2.66602 13.8733 3.02367 11.7836 3.73897L11.0199 4.00041C7.0111 5.37262 5.00671 6.05873 4.50335 6.77589ZM14.4817 11.1505L14.3069 11.464C14.1149 11.8084 14.019 11.9806 13.8693 12.0942C13.7196 12.2078 13.5333 12.25 13.1605 12.3343L12.8211 12.4111C11.5093 12.7079 10.8533 12.8563 10.6973 13.3581C10.5412 13.86 10.9884 14.3829 11.8827 15.4286L12.1141 15.6992C12.3682 15.9964 12.4953 16.145 12.5525 16.3288C12.6096 16.5126 12.5904 16.7109 12.552 17.1074L12.517 17.4684C12.3818 18.8637 12.3142 19.5613 12.7227 19.8715C13.1313 20.1816 13.7454 19.8988 14.9737 19.3333L15.2915 19.187C15.6405 19.0263 15.815 18.9459 16 18.9459C16.185 18.9459 16.3595 19.0263 16.7085 19.187L17.0263 19.3333C18.2546 19.8988 18.8687 20.1816 19.2773 19.8715C19.6858 19.5613 19.6182 18.8637 19.483 17.4684L19.448 17.1074C19.4096 16.7109 19.3904 16.5126 19.4475 16.3288C19.5047 16.145 19.6318 15.9964 19.8859 15.6992L20.1173 15.4286C21.0116 14.3829 21.4588 13.86 21.3027 13.3581C21.1467 12.8563 20.4907 12.7079 19.1789 12.4111L18.8395 12.3343C18.4667 12.25 18.2804 12.2078 18.1307 12.0942C17.981 11.9806 17.8851 11.8084 17.6931 11.464L17.5183 11.1505C16.8428 9.93862 16.505 9.33268 16 9.33268C15.495 9.33268 15.1572 9.93862 14.4817 11.1505Z" fill="#4C5261"/>
</svg>
