<svg width="32" height="32" viewBox="0 0 32 32" fill="none" xmlns="http://www.w3.org/2000/svg">
<path fill-rule="evenodd" clip-rule="evenodd" d="M16.2149 6.44392C16.773 6.44392 17.2253 5.99218 17.2253 5.43493V2.78125C20.1858 3.00046 22.8801 4.1751 24.9999 5.99752L22.9101 8.08449C22.5155 8.47853 22.5155 9.11739 22.9101 9.51143C23.3046 9.90547 23.9444 9.90547 24.339 9.51143L26.4288 7.42446C28.2538 9.54136 29.4301 12.2319 29.6496 15.1883H26.9922C26.4342 15.1883 25.9818 15.64 25.9818 16.1973C25.9818 16.7545 26.4342 17.2063 26.9922 17.2063H29.6496C29.4301 20.1627 28.2538 22.8532 26.4288 24.9701L24.339 22.8831C23.9444 22.4891 23.3046 22.4891 22.9101 22.8831C22.5155 23.2771 22.5155 23.916 22.9101 24.31L24.9999 26.397C22.6412 28.4248 19.5714 29.6506 16.2149 29.6506C12.8584 29.6506 9.78862 28.4248 7.42993 26.397L9.5198 24.31C9.91438 23.916 9.91438 23.2771 9.5198 22.8831C9.12522 22.4891 8.48547 22.4891 8.09088 22.8831L6.00101 24.9701C4.17606 22.8532 2.99978 20.1627 2.78027 17.2063H5.43735C5.99538 17.2063 6.44775 16.7545 6.44775 16.1973C6.44775 15.64 5.99538 15.1883 5.43735 15.1883H2.78027C2.99978 12.2319 4.17606 9.54136 6.00101 7.42445L8.09088 9.51143C8.48547 9.90547 9.12522 9.90547 9.5198 9.51143C9.91438 9.11739 9.91438 8.47853 9.5198 8.08449L7.42993 5.99752C9.54978 4.1751 12.244 3.00046 15.2045 2.78125V5.43493C15.2045 5.99218 15.6569 6.44392 16.2149 6.44392ZM12.2625 19.2093C12.2401 19.2695 12.2177 19.3298 12.2028 19.392C12.0712 19.9414 12.6754 20.4428 13.2445 20.1693L15.8883 18.8989C16.0939 18.8001 16.3359 18.8001 16.5416 18.8989L19.1854 20.1693C19.7545 20.4428 20.3587 19.9414 20.2271 19.392C20.2122 19.3298 20.1897 19.2695 20.1673 19.2093C20.1519 19.168 20.1366 19.1267 20.1236 19.0846L16.9222 8.71033C16.8904 8.60711 16.8551 8.50264 16.7868 8.41898C16.4994 8.06715 15.9305 8.06715 15.6431 8.41898C15.5747 8.50264 15.5395 8.60711 15.5076 8.71033L12.3063 19.0846C12.2933 19.1267 12.2779 19.168 12.2625 19.2093Z" fill="#01C82D"/>
<path fill-rule="evenodd" clip-rule="evenodd" d="M16.2149 6.44392C16.773 6.44392 17.2253 5.99218 17.2253 5.43493V2.78125C20.1858 3.00046 22.8801 4.1751 24.9999 5.99752L22.9101 8.08449C22.5155 8.47853 22.5155 9.11739 22.9101 9.51143C23.3046 9.90547 23.9444 9.90547 24.339 9.51143L26.4288 7.42446C28.2538 9.54136 29.4301 12.2319 29.6496 15.1883H26.9922C26.4342 15.1883 25.9818 15.64 25.9818 16.1973C25.9818 16.7545 26.4342 17.2063 26.9922 17.2063H29.6496C29.4301 20.1627 28.2538 22.8532 26.4288 24.9701L24.339 22.8831C23.9444 22.4891 23.3046 22.4891 22.9101 22.8831C22.5155 23.2771 22.5155 23.916 22.9101 24.31L24.9999 26.397C22.6412 28.4248 19.5714 29.6506 16.2149 29.6506C12.8584 29.6506 9.78862 28.4248 7.42993 26.397L9.5198 24.31C9.91438 23.916 9.91438 23.2771 9.5198 22.8831C9.12522 22.4891 8.48547 22.4891 8.09088 22.8831L6.00101 24.9701C4.17606 22.8532 2.99978 20.1627 2.78027 17.2063H5.43735C5.99538 17.2063 6.44775 16.7545 6.44775 16.1973C6.44775 15.64 5.99538 15.1883 5.43735 15.1883H2.78027C2.99978 12.2319 4.17606 9.54136 6.00101 7.42445L8.09088 9.51143C8.48547 9.90547 9.12522 9.90547 9.5198 9.51143C9.91438 9.11739 9.91438 8.47853 9.5198 8.08449L7.42993 5.99752C9.54978 4.1751 12.244 3.00046 15.2045 2.78125V5.43493C15.2045 5.99218 15.6569 6.44392 16.2149 6.44392ZM12.2625 19.2093C12.2401 19.2695 12.2177 19.3298 12.2028 19.392C12.0712 19.9414 12.6754 20.4428 13.2445 20.1693L15.8883 18.8989C16.0939 18.8001 16.3359 18.8001 16.5416 18.8989L19.1854 20.1693C19.7545 20.4428 20.3587 19.9414 20.2271 19.392C20.2122 19.3298 20.1897 19.2695 20.1673 19.2093C20.1519 19.168 20.1366 19.1267 20.1236 19.0846L16.9222 8.71033C16.8904 8.60711 16.8551 8.50264 16.7868 8.41898C16.4994 8.06715 15.9305 8.06715 15.6431 8.41898C15.5747 8.50264 15.5395 8.60711 15.5076 8.71033L12.3063 19.0846C12.2933 19.1267 12.2779 19.168 12.2625 19.2093Z" fill="#4C5261"/>
</svg>
